# xmcd CD database file
#
# Track frame offsets:
#	182
#	20262
#	38270
#	54325
#	82430
#	109295
#	135045
#	154385
#	170442
#	190410
#	207075
#	220800
#	228442
#	236422
#	251062
#	264025
#	296427
#	314587
#
# Disc length: 4517 seconds
#
# Revision: 4
# Processed by: cddbd v1.5.2PL0 Copyright (c) Steve Scherf et al.
# Submitted via: CDex 1.51
#
DISCID=f311a312
DTITLE=Francis Poulenc - Intégrale Musique de Chambre  [CD 1-2]
DYEAR=1998
DGENRE=Classique
TTITLE0=Sonate pour flûte et piano - I. Allegro malinconico  (Á la mémoire de Madame Sprague)
TTITLE1=Sonate pour flûte et piano - II. Cantilena
TTITLE2=Sonate pour flûte et piano - III. Presto giocoso
TTITLE3=Sonate pour violon et piano - I. Allegro con fuoco  (Á la mémoire de Frédérico Garcia Lorca)
TTITLE4=Sonate pour violon et piano - II. Intermezzo
TTITLE5=Sonate pour violon et piano - III. Presto tragico
TTITLE6=Sonate pour hautbois et piano - I. Élégie  (Á la mémoire de Serge Prokofiev)
TTITLE7=Sonate pour hautbois et piano - II. Scherzo
TTITLE8=Sonate pour hautbois et piano - III. Déploration
TTITLE9=Sonate pour cor, trompette et trombone - I. Allegro moderato
TTITLE10=Sonate pour cor, trompette et trombone - II. Andante
TTITLE11=Sonate pour cor, trompette et trombone - III. Rondeau
TTITLE12=Sonate pour clarinette et basson - I. Allegro
TTITLE13=Sonate pour clarinette et basson - II. Romance
TTITLE14=Sonate pour clarinette et basson - III. Final
TTITLE15=Sextuor pour flûte, hautbois, clarinette, cor, basson et piano - I. Allegro vivace
TTITLE16=Sextuor pour flûte, hautbois, clarinette, cor, basson et piano - II. Divertissement
TTITLE17=Sextuor pour flûte, hautbois, clarinette, cor, basson et piano - III. Finale
EXTD=YEAR: 1998
EXTT0=
EXTT1=
EXTT2=
EXTT3=
EXTT4=
EXTT5=
EXTT6=
EXTT7=
EXTT8=
EXTT9=
EXTT10=
EXTT11=
EXTT12=
EXTT13=
EXTT14=
EXTT15=
EXTT16=
EXTT17=
PLAYORDER=
